# xmcd CD database file
#
# Track frame offsets:
#	150
#	3036
#	21305
#	49051
#	66991
#	90828
#	98726
#	117873
#	122011
#	136979
#	159219
#	172811
#	194009
#	205278
#	224518
#	248335
#	262417
#	273085
#
# Disc length: 3877 seconds
#
# Revision: 0
# Processed by: cddbd v1.5.1PL2 Copyright (c) Steve Scherf et al.
# Submitted via: CDex 1.51
#
DISCID=f20f2312
DTITLE=StudioTomato - 少年時代の画集 [The Book of Boyhood]
DYEAR=2006
DGENRE=Easy Listening
TTITLE0=Prelude -the end of the time-
TTITLE1=悠久の時を見つめて
TTITLE2=Yonna -I still have a name?-
TTITLE3=Still Darkness
TTITLE4=守護する者 -vocal edition-
TTITLE5=Lydia
TTITLE6=Yearning for Claudia
TTITLE7=intermission I -Vanity-
TTITLE8=誰も知らないパラダイス
TTITLE9=約束の日
TTITLE10=Tears from Fallen Angel
TTITLE11=桜吹雪
TTITLE12=願い
TTITLE13=Reason for me to find you -光と影-
TTITLE14=時の回廊
TTITLE15=intermission II -Nostalgia-
TTITLE16=The end of the time
TTITLE17=Bonus Track
EXTD=YEAR: 2006
EXTT0=
EXTT1=
EXTT2=
EXTT3=
EXTT4=
EXTT5=
EXTT6=
EXTT7=
EXTT8=
EXTT9=
EXTT10=
EXTT11=
EXTT12=
EXTT13=
EXTT14=
EXTT15=
EXTT16=
EXTT17=
PLAYORDER=
